<mxfile host="app.diagrams.net" agent="Mozilla/5.0 (X11; Linux x86_64) AppleWebKit/537.36 (KHTML, like Gecko) Chrome/130.0.0.0 Safari/537.36" version="25.0.3">
  <diagram name="Page-1" id="F-WUA6dQglnfXswxeoK7">
    <mxGraphModel dx="1434" dy="786" grid="0" gridSize="10" guides="1" tooltips="1" connect="1" arrows="1" fold="1" page="1" pageScale="1" pageWidth="850" pageHeight="1100" background="#000000" math="0" shadow="0">
      <root>
        <mxCell id="0" />
        <mxCell id="1" parent="0" />
        <mxCell id="PLUkXuT272BdfhAI2sZs-28" style="edgeStyle=orthogonalEdgeStyle;rounded=0;orthogonalLoop=1;jettySize=auto;html=1;fontColor=#FCFCFC;labelBackgroundColor=#000000;strokeColor=#858585;" edge="1" parent="1">
          <mxGeometry relative="1" as="geometry">
            <mxPoint x="144.02999999999997" y="125" as="targetPoint" />
            <mxPoint x="51.5" y="45" as="sourcePoint" />
            <Array as="points">
              <mxPoint x="52" y="125" />
            </Array>
          </mxGeometry>
        </mxCell>
        <mxCell id="PLUkXuT272BdfhAI2sZs-29" style="edgeStyle=orthogonalEdgeStyle;rounded=0;orthogonalLoop=1;jettySize=auto;html=1;fontColor=#FCFCFC;labelBackgroundColor=#000000;strokeColor=#858585;" edge="1" parent="1">
          <mxGeometry relative="1" as="geometry">
            <mxPoint x="144.02999999999997" y="212" as="targetPoint" />
            <mxPoint x="51.5" y="42" as="sourcePoint" />
            <Array as="points">
              <mxPoint x="52" y="212" />
            </Array>
          </mxGeometry>
        </mxCell>
        <mxCell id="PLUkXuT272BdfhAI2sZs-30" style="edgeStyle=orthogonalEdgeStyle;rounded=0;orthogonalLoop=1;jettySize=auto;html=1;fontColor=#FCFCFC;labelBackgroundColor=#000000;strokeColor=#858585;" edge="1" parent="1">
          <mxGeometry relative="1" as="geometry">
            <mxPoint x="144.02999999999997" y="289" as="targetPoint" />
            <mxPoint x="51.5" y="45" as="sourcePoint" />
            <Array as="points">
              <mxPoint x="52" y="289" />
            </Array>
          </mxGeometry>
        </mxCell>
        <mxCell id="PLUkXuT272BdfhAI2sZs-31" style="edgeStyle=orthogonalEdgeStyle;rounded=0;orthogonalLoop=1;jettySize=auto;html=1;fontColor=#FCFCFC;labelBackgroundColor=#000000;strokeColor=#858585;entryX=0;entryY=0.5;entryDx=0;entryDy=0;" edge="1" parent="1">
          <mxGeometry relative="1" as="geometry">
            <mxPoint x="144.02999999999997" y="539" as="targetPoint" />
            <mxPoint x="51.5" y="60" as="sourcePoint" />
            <Array as="points">
              <mxPoint x="52" y="225" />
              <mxPoint x="51" y="507" />
            </Array>
          </mxGeometry>
        </mxCell>
        <mxCell id="PLUkXuT272BdfhAI2sZs-2" value="Traefik + Mkcert are used to create .local domains + selfsigned certificates - they are auto trusted in chrome &lt;br&gt;if you are using another browser feel free to either enhance the build script or import the certs manually" style="text;html=1;align=center;verticalAlign=middle;resizable=0;points=[];autosize=1;strokeColor=none;fillColor=none;fontColor=#FCFCFC;labelBackgroundColor=#000000;" vertex="1" parent="1">
          <mxGeometry x="90" y="35" width="590" height="40" as="geometry" />
        </mxCell>
        <mxCell id="PLUkXuT272BdfhAI2sZs-32" value="Minio / S3 - this is used as a data storage&amp;nbsp;&lt;div&gt;which has buckets for logging and incoming files preconfigured&amp;nbsp;&lt;br&gt;&amp;nbsp;incoming logs are automatically streamed to grafana while incoming files create a AMQP message on RabbitMQ&lt;br&gt;read the full documentation here: ./documentation/minio.md&lt;/div&gt;" style="text;html=1;align=center;verticalAlign=middle;resizable=0;points=[];autosize=1;strokeColor=none;fillColor=none;fontColor=#FCFCFC;labelBackgroundColor=#000000;" vertex="1" parent="1">
          <mxGeometry x="210" y="177" width="620" height="70" as="geometry" />
        </mxCell>
        <mxCell id="PLUkXuT272BdfhAI2sZs-34" value="RabbitMQ - Messenger&lt;div&gt;the whole infrastructure relies heavily on the message pattern. &lt;br&gt;Which means that while we are doing some kind of multicore processing the &lt;br&gt;scaling mostly works by deviding the tasks on multiple instances via messages&lt;/div&gt;" style="text;html=1;align=center;verticalAlign=middle;resizable=0;points=[];autosize=1;strokeColor=none;fillColor=none;fontColor=#FCFCFC;labelBackgroundColor=#000000;" vertex="1" parent="1">
          <mxGeometry x="300" y="254" width="440" height="70" as="geometry" />
        </mxCell>
        <mxCell id="PLUkXuT272BdfhAI2sZs-36" value="PostgreSQL with TimescaleDB and PostGIS extensions preconfigured&amp;nbsp;&lt;div&gt;there is also an instance of n8n which we use for visualisation (we don&#39;`t ship n8n with the application)&lt;br&gt;but for n8n there is a database (called n8n) configured to work as the base db for n8n.&lt;/div&gt;" style="text;html=1;align=center;verticalAlign=middle;resizable=0;points=[];autosize=1;strokeColor=none;fillColor=none;fontColor=#FCFCFC;labelBackgroundColor=#000000;" vertex="1" parent="1">
          <mxGeometry x="245" y="338" width="560" height="60" as="geometry" />
        </mxCell>
        <mxCell id="PLUkXuT272BdfhAI2sZs-37" value="Grafana - Visualisation of logs and metrics&amp;nbsp;&lt;div&gt;metrics taken from PostgreSQL and Prometheus and also logs coming from Fluentd + Loki&amp;nbsp;&lt;div&gt;where basically the same happens as with the incoming files&amp;nbsp;&lt;div&gt;a message is created when logs are written&amp;nbsp;&lt;/div&gt;&lt;div&gt;and then they are redirected from Fluentd which consumes the message&amp;nbsp;&lt;/div&gt;&lt;div&gt;and sends the logs to Loki where they are processed for Grafana&lt;/div&gt;&lt;/div&gt;&lt;/div&gt;" style="text;html=1;align=center;verticalAlign=middle;resizable=0;points=[];autosize=1;strokeColor=none;fillColor=none;fontColor=#FCFCFC;labelBackgroundColor=#000000;" vertex="1" parent="1">
          <mxGeometry x="269" y="490" width="502" height="98" as="geometry" />
        </mxCell>
        <mxCell id="PLUkXuT272BdfhAI2sZs-60" style="edgeStyle=orthogonalEdgeStyle;rounded=0;orthogonalLoop=1;jettySize=auto;html=1;exitX=0.5;exitY=1;exitDx=0;exitDy=0;entryX=0;entryY=0.5;entryDx=0;entryDy=0;strokeColor=#808080;" edge="1" parent="1" source="PLUkXuT272BdfhAI2sZs-42" target="PLUkXuT272BdfhAI2sZs-58">
          <mxGeometry relative="1" as="geometry" />
        </mxCell>
        <mxCell id="PLUkXuT272BdfhAI2sZs-42" value="" style="image;aspect=fixed;perimeter=ellipsePerimeter;html=1;align=center;shadow=0;dashed=0;fontColor=#FCFCFC;labelBackgroundColor=#000000;fontSize=12;spacingTop=3;image=img/lib/ibm/data/data_services.svg;strokeColor=#858585;" vertex="1" parent="1">
          <mxGeometry x="145" y="337" width="60" height="60" as="geometry" />
        </mxCell>
        <mxCell id="PLUkXuT272BdfhAI2sZs-44" value="" style="image;aspect=fixed;perimeter=ellipsePerimeter;html=1;align=center;shadow=0;dashed=0;fontColor=#FCFCFC;labelBackgroundColor=#000000;fontSize=12;spacingTop=3;image=img/lib/ibm/infrastructure/enterprise_messaging.svg;strokeColor=#858585;" vertex="1" parent="1">
          <mxGeometry x="145" y="257" width="60" height="60" as="geometry" />
        </mxCell>
        <mxCell id="PLUkXuT272BdfhAI2sZs-46" value="" style="image;aspect=fixed;perimeter=ellipsePerimeter;html=1;align=center;shadow=0;dashed=0;fontColor=#FCFCFC;labelBackgroundColor=#000000;fontSize=12;spacingTop=3;image=img/lib/ibm/vpc/ObjectStorage.svg;strokeColor=#858585;" vertex="1" parent="1">
          <mxGeometry x="145" y="182" width="60" height="60" as="geometry" />
        </mxCell>
        <mxCell id="PLUkXuT272BdfhAI2sZs-56" style="edgeStyle=orthogonalEdgeStyle;rounded=0;orthogonalLoop=1;jettySize=auto;html=1;exitX=0.5;exitY=1;exitDx=0;exitDy=0;entryX=0;entryY=0.5;entryDx=0;entryDy=0;fontColor=#FCFCFC;labelBackgroundColor=#000000;strokeColor=#858585;" edge="1" parent="1" source="PLUkXuT272BdfhAI2sZs-47" target="PLUkXuT272BdfhAI2sZs-55">
          <mxGeometry relative="1" as="geometry">
            <mxPoint x="51" y="680" as="targetPoint" />
          </mxGeometry>
        </mxCell>
        <mxCell id="PLUkXuT272BdfhAI2sZs-62" style="edgeStyle=orthogonalEdgeStyle;rounded=0;orthogonalLoop=1;jettySize=auto;html=1;exitX=0.5;exitY=1;exitDx=0;exitDy=0;entryX=0;entryY=0.5;entryDx=0;entryDy=0;strokeColor=#919191;" edge="1" parent="1" source="PLUkXuT272BdfhAI2sZs-47" target="PLUkXuT272BdfhAI2sZs-42">
          <mxGeometry relative="1" as="geometry" />
        </mxCell>
        <mxCell id="PLUkXuT272BdfhAI2sZs-76" style="edgeStyle=orthogonalEdgeStyle;rounded=0;orthogonalLoop=1;jettySize=auto;html=1;exitX=0.5;exitY=1;exitDx=0;exitDy=0;strokeColor=#969696;entryX=0;entryY=0.5;entryDx=0;entryDy=0;" edge="1" parent="1" source="PLUkXuT272BdfhAI2sZs-47" target="PLUkXuT272BdfhAI2sZs-67">
          <mxGeometry relative="1" as="geometry">
            <mxPoint x="51" y="1150" as="targetPoint" />
          </mxGeometry>
        </mxCell>
        <mxCell id="PLUkXuT272BdfhAI2sZs-78" style="edgeStyle=orthogonalEdgeStyle;rounded=0;orthogonalLoop=1;jettySize=auto;html=1;exitX=0.5;exitY=1;exitDx=0;exitDy=0;strokeColor=#FFFFFF;entryX=0;entryY=0.5;entryDx=0;entryDy=0;" edge="1" parent="1" source="PLUkXuT272BdfhAI2sZs-47" target="PLUkXuT272BdfhAI2sZs-77">
          <mxGeometry relative="1" as="geometry">
            <mxPoint x="51" y="1202" as="targetPoint" />
          </mxGeometry>
        </mxCell>
        <mxCell id="PLUkXuT272BdfhAI2sZs-81" style="edgeStyle=orthogonalEdgeStyle;rounded=0;orthogonalLoop=1;jettySize=auto;html=1;exitX=0.5;exitY=1;exitDx=0;exitDy=0;strokeColor=#FFFFFF;entryX=0;entryY=0.5;entryDx=0;entryDy=0;" edge="1" parent="1" source="PLUkXuT272BdfhAI2sZs-47" target="PLUkXuT272BdfhAI2sZs-80">
          <mxGeometry relative="1" as="geometry">
            <mxPoint x="51" y="1262" as="targetPoint" />
          </mxGeometry>
        </mxCell>
        <mxCell id="PLUkXuT272BdfhAI2sZs-47" value="" style="image;aspect=fixed;perimeter=ellipsePerimeter;html=1;align=center;shadow=0;dashed=0;fontColor=#FCFCFC;labelBackgroundColor=#000000;fontSize=12;spacingTop=3;image=img/lib/ibm/vpc/PublicGateway.svg;strokeColor=#858585;" vertex="1" parent="1">
          <mxGeometry x="21" y="30" width="60" height="60" as="geometry" />
        </mxCell>
        <mxCell id="PLUkXuT272BdfhAI2sZs-50" style="edgeStyle=orthogonalEdgeStyle;rounded=0;orthogonalLoop=1;jettySize=auto;html=1;fontColor=#FCFCFC;labelBackgroundColor=#000000;strokeColor=#858585;" edge="1" parent="1">
          <mxGeometry relative="1" as="geometry">
            <mxPoint x="259.9967409058086" y="645" as="sourcePoint" />
            <mxPoint x="173" y="569" as="targetPoint" />
            <Array as="points">
              <mxPoint x="172.93" y="645" />
            </Array>
          </mxGeometry>
        </mxCell>
        <mxCell id="PLUkXuT272BdfhAI2sZs-53" style="edgeStyle=orthogonalEdgeStyle;rounded=0;orthogonalLoop=1;jettySize=auto;html=1;entryX=0.5;entryY=1;entryDx=0;entryDy=0;fontColor=#FCFCFC;labelBackgroundColor=#000000;strokeColor=#858585;" edge="1" parent="1">
          <mxGeometry relative="1" as="geometry">
            <mxPoint x="261" y="722" as="sourcePoint" />
            <mxPoint x="173.02999999999997" y="568" as="targetPoint" />
          </mxGeometry>
        </mxCell>
        <mxCell id="PLUkXuT272BdfhAI2sZs-52" value="Prometheus + Node Exporter (e.g. for CPU usage) + Postgres Exporter which&lt;div&gt;takes data from the database and creates metrics for Prometheus&amp;nbsp;&lt;/div&gt;&lt;div&gt;which then is used as a source by Grafana&lt;br&gt;e.g. if you want to see how many user have registered yesterday&lt;br&gt;or how many register on average&amp;nbsp;&lt;span style=&quot;&quot;&gt;or how well funnels perform... etc&lt;/span&gt;&lt;/div&gt;" style="text;html=1;align=center;verticalAlign=middle;resizable=0;points=[];autosize=1;strokeColor=none;fillColor=none;fontColor=#FCFCFC;labelBackgroundColor=#000000;" vertex="1" parent="1">
          <mxGeometry x="330" y="602" width="440" height="90" as="geometry" />
        </mxCell>
        <mxCell id="PLUkXuT272BdfhAI2sZs-54" value="Fluentd + Loki - where Fluentd consumes messages&amp;nbsp;&lt;div&gt;which are created when new logs are written to minios logs bucket&lt;/div&gt;&lt;div&gt;and makes them available for Loki&amp;nbsp;&lt;/div&gt;&lt;div&gt;which is used as a datasource for Grafana&lt;/div&gt;" style="text;html=1;align=center;verticalAlign=middle;resizable=0;points=[];autosize=1;strokeColor=none;fillColor=none;fontColor=#FCFCFC;labelBackgroundColor=#000000;" vertex="1" parent="1">
          <mxGeometry x="363" y="691" width="370" height="70" as="geometry" />
        </mxCell>
        <mxCell id="PLUkXuT272BdfhAI2sZs-55" value="" style="image;aspect=fixed;perimeter=ellipsePerimeter;html=1;align=center;shadow=0;dashed=0;fontColor=#FCFCFC;labelBackgroundColor=#000000;fontSize=12;spacingTop=3;image=img/lib/ibm/miscellaneous/cognitive_services.svg;strokeColor=#858585;" vertex="1" parent="1">
          <mxGeometry x="143" y="763" width="60" height="60" as="geometry" />
        </mxCell>
        <mxCell id="PLUkXuT272BdfhAI2sZs-57" value="Neo4j - GraphDB - provides the ability to create graph represenations of data e.g. knowlegde graphs&amp;nbsp;&lt;div&gt;the core system provides a base memory functionality for ML models&lt;/div&gt;&lt;div&gt;which is used to create and remove AI agents&amp;nbsp;&lt;/div&gt;" style="text;html=1;align=center;verticalAlign=middle;resizable=0;points=[];autosize=1;strokeColor=none;fillColor=none;fontColor=#FCFCFC;labelBackgroundColor=#000000;" vertex="1" parent="1">
          <mxGeometry x="220" y="769" width="560" height="60" as="geometry" />
        </mxCell>
        <mxCell id="PLUkXuT272BdfhAI2sZs-59" style="edgeStyle=orthogonalEdgeStyle;rounded=0;orthogonalLoop=1;jettySize=auto;html=1;entryX=0.5;entryY=1;entryDx=0;entryDy=0;strokeColor=#808080;" edge="1" parent="1" source="PLUkXuT272BdfhAI2sZs-58" target="PLUkXuT272BdfhAI2sZs-42">
          <mxGeometry relative="1" as="geometry" />
        </mxCell>
        <mxCell id="PLUkXuT272BdfhAI2sZs-58" value="" style="image;aspect=fixed;perimeter=ellipsePerimeter;html=1;align=center;shadow=0;dashed=0;fontColor=#4277BB;labelBackgroundColor=default;fontSize=12;spacingTop=3;image=img/lib/ibm/data/model.svg;strokeColor=#808080;" vertex="1" parent="1">
          <mxGeometry x="259" y="427" width="60" height="60" as="geometry" />
        </mxCell>
        <mxCell id="PLUkXuT272BdfhAI2sZs-61" value="&lt;font style=&quot;background-color: rgb(0, 0, 0);&quot; color=&quot;#ffffff&quot;&gt;Comes with an instance of PGAdmin preconfigured&lt;/font&gt;" style="text;html=1;align=center;verticalAlign=middle;resizable=0;points=[];autosize=1;strokeColor=none;fillColor=none;" vertex="1" parent="1">
          <mxGeometry x="331" y="441" width="290" height="26" as="geometry" />
        </mxCell>
        <mxCell id="PLUkXuT272BdfhAI2sZs-64" value="&lt;font style=&quot;background-color: rgb(0, 0, 0);&quot; color=&quot;#ffffff&quot;&gt;We are using vault both for production and locally to store credentials for the services&lt;/font&gt;&lt;div&gt;&lt;font style=&quot;background-color: rgb(0, 0, 0);&quot; color=&quot;#ffffff&quot;&gt;this has a great advantage when deploying the services because no service ever needs a config file&amp;nbsp;&lt;/font&gt;&lt;/div&gt;&lt;div&gt;&lt;font style=&quot;background-color: rgb(0, 0, 0);&quot; color=&quot;#ffffff&quot;&gt;or static, hardcoded credentials&lt;/font&gt;&lt;/div&gt;&lt;div&gt;&lt;font style=&quot;background-color: rgb(0, 0, 0);&quot; color=&quot;#ffffff&quot;&gt;for python microservices we provide the intelligent intern base lib which takes the credentials from vault and&amp;nbsp;&lt;/font&gt;&lt;/div&gt;&lt;div&gt;&lt;font style=&quot;background-color: rgb(0, 0, 0);&quot; color=&quot;#ffffff&quot;&gt;you don&#39;t need to care about either logging or any kind of connection - it is just there&lt;/font&gt;&lt;/div&gt;" style="text;html=1;align=center;verticalAlign=middle;resizable=0;points=[];autosize=1;strokeColor=none;fillColor=none;" vertex="1" parent="1">
          <mxGeometry x="214" y="88" width="592" height="84" as="geometry" />
        </mxCell>
        <mxCell id="PLUkXuT272BdfhAI2sZs-65" value="" style="image;aspect=fixed;perimeter=ellipsePerimeter;html=1;align=center;shadow=0;dashed=0;fontColor=#4277BB;labelBackgroundColor=default;fontSize=12;spacingTop=3;image=img/lib/ibm/infrastructure/monitoring_logging.svg;" vertex="1" parent="1">
          <mxGeometry x="263" y="694" width="60" height="60" as="geometry" />
        </mxCell>
        <mxCell id="PLUkXuT272BdfhAI2sZs-66" value="" style="image;aspect=fixed;perimeter=ellipsePerimeter;html=1;align=center;shadow=0;dashed=0;fontColor=#4277BB;labelBackgroundColor=default;fontSize=12;spacingTop=3;image=img/lib/ibm/management/monitoring_metrics.svg;" vertex="1" parent="1">
          <mxGeometry x="263" y="615" width="60" height="60" as="geometry" />
        </mxCell>
        <mxCell id="PLUkXuT272BdfhAI2sZs-67" value="" style="image;aspect=fixed;perimeter=ellipsePerimeter;html=1;align=center;shadow=0;dashed=0;fontColor=#4277BB;labelBackgroundColor=default;fontSize=12;spacingTop=3;image=img/lib/ibm/data/caches.svg;" vertex="1" parent="1">
          <mxGeometry x="144" y="845" width="60" height="60" as="geometry" />
        </mxCell>
        <mxCell id="PLUkXuT272BdfhAI2sZs-69" value="" style="image;aspect=fixed;perimeter=ellipsePerimeter;html=1;align=center;shadow=0;dashed=0;fontColor=#4277BB;labelBackgroundColor=default;fontSize=12;spacingTop=3;image=img/lib/ibm/blockchain/key_management.svg;" vertex="1" parent="1">
          <mxGeometry x="143" y="96" width="60" height="60" as="geometry" />
        </mxCell>
        <mxCell id="PLUkXuT272BdfhAI2sZs-70" value="" style="image;aspect=fixed;perimeter=ellipsePerimeter;html=1;align=center;shadow=0;dashed=0;fontColor=#4277BB;labelBackgroundColor=default;fontSize=12;spacingTop=3;image=img/lib/ibm/applications/visualization.svg;" vertex="1" parent="1">
          <mxGeometry x="144" y="507" width="60" height="60" as="geometry" />
        </mxCell>
        <mxCell id="PLUkXuT272BdfhAI2sZs-71" style="edgeStyle=orthogonalEdgeStyle;rounded=0;orthogonalLoop=1;jettySize=auto;html=1;entryX=0;entryY=0.5;entryDx=0;entryDy=0;strokeColor=#808080;exitX=0.5;exitY=1;exitDx=0;exitDy=0;" edge="1" parent="1" target="PLUkXuT272BdfhAI2sZs-73" source="PLUkXuT272BdfhAI2sZs-67">
          <mxGeometry relative="1" as="geometry">
            <mxPoint x="163" y="934" as="sourcePoint" />
            <mxPoint x="257" y="907" as="targetPoint" />
            <Array as="points">
              <mxPoint x="174" y="934" />
            </Array>
          </mxGeometry>
        </mxCell>
        <mxCell id="PLUkXuT272BdfhAI2sZs-73" value="" style="image;aspect=fixed;perimeter=ellipsePerimeter;html=1;align=center;shadow=0;dashed=0;fontColor=#4277BB;labelBackgroundColor=default;fontSize=12;spacingTop=3;image=img/lib/ibm/data/model.svg;strokeColor=#808080;" vertex="1" parent="1">
          <mxGeometry x="257" y="904" width="60" height="60" as="geometry" />
        </mxCell>
        <mxCell id="PLUkXuT272BdfhAI2sZs-74" value="&lt;font style=&quot;background-color: rgb(0, 0, 0);&quot; color=&quot;#ffffff&quot;&gt;Comes with an instance of Redis Commander preconfigured&lt;/font&gt;" style="text;html=1;align=center;verticalAlign=middle;resizable=0;points=[];autosize=1;strokeColor=none;fillColor=none;" vertex="1" parent="1">
          <mxGeometry x="339" y="918" width="339" height="26" as="geometry" />
        </mxCell>
        <mxCell id="PLUkXuT272BdfhAI2sZs-75" value="&lt;font style=&quot;background-color: rgb(0, 0, 0);&quot; color=&quot;#ffffff&quot;&gt;Redis Cache - we mostly just use it to store workflows in.&lt;/font&gt;" style="text;html=1;align=center;verticalAlign=middle;resizable=0;points=[];autosize=1;strokeColor=none;fillColor=none;" vertex="1" parent="1">
          <mxGeometry x="216" y="865" width="320" height="26" as="geometry" />
        </mxCell>
        <mxCell id="PLUkXuT272BdfhAI2sZs-77" value="" style="image;aspect=fixed;perimeter=ellipsePerimeter;html=1;align=center;shadow=0;dashed=0;fontColor=#4277BB;labelBackgroundColor=default;fontSize=12;spacingTop=3;image=img/lib/ibm/analytics/streaming_computing.svg;" vertex="1" parent="1">
          <mxGeometry x="144" y="961" width="60" height="60" as="geometry" />
        </mxCell>
        <mxCell id="PLUkXuT272BdfhAI2sZs-79" value="&lt;font style=&quot;background-color: rgb(0, 0, 0);&quot; color=&quot;#ffffff&quot;&gt;Mercure Server - This is for communication with the frontend - kind of websockets&lt;/font&gt;" style="text;html=1;align=center;verticalAlign=middle;resizable=0;points=[];autosize=1;strokeColor=none;fillColor=none;" vertex="1" parent="1">
          <mxGeometry x="223" y="979" width="451" height="26" as="geometry" />
        </mxCell>
        <mxCell id="PLUkXuT272BdfhAI2sZs-80" value="" style="image;aspect=fixed;perimeter=ellipsePerimeter;html=1;align=center;shadow=0;dashed=0;fontColor=#4277BB;labelBackgroundColor=default;fontSize=12;spacingTop=3;image=img/lib/ibm/social/messaging.svg;" vertex="1" parent="1">
          <mxGeometry x="143" y="1027" width="60" height="60" as="geometry" />
        </mxCell>
        <mxCell id="PLUkXuT272BdfhAI2sZs-82" value="&lt;font style=&quot;background-color: rgb(0, 0, 0);&quot; color=&quot;#ffffff&quot;&gt;Mailcatcher - which comes in handy locally to test EMails send by the applications&lt;/font&gt;" style="text;html=1;align=center;verticalAlign=middle;resizable=0;points=[];autosize=1;strokeColor=none;fillColor=none;" vertex="1" parent="1">
          <mxGeometry x="218" y="1040" width="452" height="26" as="geometry" />
        </mxCell>
      </root>
    </mxGraphModel>
  </diagram>
</mxfile>
